<svg xmlns="http://www.w3.org/2000/svg" xmlns:xlink="http://www.w3.org/1999/xlink" viewBox="0 0 8503.94 1700.79"><defs><style>.cls-1{fill:url(#Dégradé_sans_nom_3);}.cls-2{fill:#fdfdfd;}.cls-3{isolation:isolate;}.cls-4{fill:#040505;}.cls-5{fill:url(#Dégradé_sans_nom_4);}</style><linearGradient id="Dégradé_sans_nom_3" x1="-1.3" y1="1700.8" x2="-0.3" y2="1700.8" gradientTransform="matrix(1524, 0, 0, -1524, 2308.01, 2592877.01)" gradientUnits="userSpaceOnUse"><stop offset="0" stop-color="#fbd83d"/><stop offset="0.24" stop-color="#ddb941"/><stop offset="0.48" stop-color="#f2e155"/><stop offset="0.81" stop-color="#d8b141"/><stop offset="1" stop-color="#d7b142"/></linearGradient><linearGradient id="Dégradé_sans_nom_4" x1="1.21" y1="1701.24" x2="1.21" y2="1700.24" gradientTransform="matrix(6112.15, 0, 0, -1166, -2280.14, 1983919.01)" gradientUnits="userSpaceOnUse"><stop offset="0" stop-color="#91671f"/><stop offset="0.36" stop-color="#c39f59"/><stop offset="0.56" stop-color="#f0db80"/><stop offset="0.73" stop-color="#bd9b3b"/><stop offset="1" stop-color="#d8b141"/></linearGradient></defs><g id="Texte"><g id="FINAL_LOGO" data-name="FINAL LOGO"><g id="Calque_1" data-name="Calque 1"><circle id="Ellipse_18" data-name="Ellipse 18" class="cls-1" cx="1092.09" cy="850.39" r="762"/></g><g id="Calque_2" data-name="Calque 2"><path id="Path_229" data-name="Path 229" class="cls-2" d="M1006.44,457.84l24.2-8.27c-33.52,2.72-38.15-21.31-44.32-44.72-4-15.07-9.85-29.54-15.3-46.16l42-6.56c-25.34-9-59.58-2.86-59.45-46.62l44.61-13.23c-17.76-13.66-43,12.8-62.37-16.88,35.1-7.42,65.36-14.57,96-19.37,4.16-.62,13.13,9.85,14.83,16.42,8.08,35,16.68,70.06,21,105.61,7.65,63.56,12.38,127.45,20.1,191.3,3.11-35.45,4.5-71.17,9.84-106.33,9.07-60.67,18.85-121.48,31.65-181.33,6.8-31.81,10.11-32,41.3-26.85,23.54,3.91,46.69,10.47,72.85,16.41l-14.57,36.12-78.5-12.8-2.93,7.29c16.42,9.19,32.44,19.7,49.68,27.21,16,6.93,20.91,15.63,12.6,31.26a57.38,57.38,0,0,0-4.53,12.93c-3.64,14.15-8.76,26.26-29.55,22.55,19.54,7.85,15.63,19.7,11.13,33.85-9.35,29.19-17.07,59.1-25.77,89.56l-28,2.93c29.55,13.65,19.7,33.12,15.6,52.52-8,37-14.13,74.46-21.78,111.63a32.78,32.78,0,0,1-9.84,17.5c-12.51,10.37-18.72,22.16-18.52,38.87.52,44.55-.66,89.13-.23,133.68,0,8.5,4.5,17,6.89,25.48l6.57-.59c1.84-5.19,4-10.28,5.42-15.6,39.72-151.8,91.43-299.11,170.12-435.46,21.41-37,50.76-69.5,76.66-103.91,7.06-9.35,15.47-10.14,25.35-3.28,25,17.17,50.33,33.88,78.79,52.89-20.39,14.05-34.9,25-50.43,34.21-4.36,2.56-12.28,1.41-17.63-.59-11.36-4.24-22.09-10.15-33.09-15.37l-2.72,4,34.14,28.4C1374,457,1367.87,492.87,1330.9,482.7c11.26,15.95,1.78,25.5-8,36.34-47.58,52.82-82.67,114.25-121.25,173.57-45.63,70.2-55.58,151.28-82.77,227.15l15.2,5.26c16.68-44.59,30.3-89.86,50.1-132.24,68.09-146.1,169.11-262.15,315.18-335.83,13.42-6.76,22.45-7,31.48,5.75,18.32,25.8,37.23,51.18,56.07,76.95-25.08,16.12-44.58,18-65.07,1.28a130.08,130.08,0,0,0-44.06-22.45l50.46,43c-27.93,12.37-48.26,22-69.2,30.07-4,1.51-10.9-2.56-15.66-5.45-13.3-8-26.27-16.78-42.52-22.23l31.72,40.19c-27.38,17.24-55.22,31.19-78.8,50.39-38.93,31.78-74.91,67.14-112.6,100.43-5.45,4.83-13.86,6.2-20.29,10.15-5.49,3.28-12.48,7.09-14.78,12.41-16.41,37.75-34.93,75-46.42,114.34-10.47,35.82-27.31,65.66-57.52,92.16-13.75-28.2-30.46-55.42-40.71-84.9-18-51.81-31.78-105.06-47.9-157.59-2.36-7.61-2-19.7-16.41-17.2-2.07.33-5.91-4.46-7.55-7.58-35.45-68.13-76.76-132.37-129.91-193.24L890,502.26c-22.16-4.23-38.61,17.4-53.84-3.51-10.31-14.12-24-25.77-37.36-39.76l26-29-2.56-3.55-37.23,23-66.19-46.3c24.73-30.66,58.54-47.5,95.21-66.71,17.34,21.18,36.38,41.86,52.53,64.61,72.23,102,119.54,216.12,158.24,334,16.12,49.05,29.29,99,43.86,148.52a46.77,46.77,0,0,0,10.84,19.7c2.85-6.07,8.14-12.14,8.21-18.25.49-48.49.92-97-1-145.47-.36-8.9-11.62-17.34-17.8-26-4.3-6-11-11.43-12.37-18C1039.57,617,1023.15,538.51,1006.44,457.84Z"/><path id="Path_230" data-name="Path 230" class="cls-2" d="M943.87,835.81c-6.9,5.09-14.19,10.41-17.73,13.14C878.47,822,833.2,796.42,787.76,770.87a166.12,166.12,0,0,0-23.41-10c-17.73-6.57-39.23-8.83-37.33-38.12-9.85,22.49-24.26,17.17-39.92,12.71-20.68-5.91-41.86-10.21-62.94-14.48-10.47-2.13-15.92-6.14-15-18.12,1.12-14.68.27-29.55.27-44.29l-5.65-2.82c-7.68,9.85-16.91,18.71-22.69,29.54-14.44,26.92-13.82,27.25-46.32,22.16-2.5-31.64,11.89-58.83,23.41-86.9,5.15-12.5,11.42-15.4,25.25-13.13,199.8,32.37,345.27,137.89,434.93,319.93,5.78,11.72,8.53,24,25.05,30.14,12.38,4.53,21.44,20.59,29.55,33.13,2.92,4.56-1.45,13.79-2.76,22.78C1007.69,965.6,996.89,886.28,943.87,835.81Z"/><path id="Path_231" data-name="Path 231" class="cls-2" d="M1049.68,927.12c18.09-.72,38.18,30.24,36.64,56.76-3.29-.75-7.36-.49-8.8-2.36-16.42-21.34-36.12-39.1-44.23-67.7-12.83-45-32.82-87.85-49.53-131.81-4.3-11.49-9.85-16.88-23.21-13.79-5.16,1.18-13.3-2.36-17.47-6.57-15.82-15.59-29.55-33.32-46-48.19-11.72-10.6-20-20-10.11-37.89-17.17,17.57-27.74,4.2-40.19-4.56-26.26-18.42-53.12-35.72-81.74-54.79l12.6-32.64c-1.84-.65-3.44-1.57-3.71-1.28-22.52,25.94-46.62,20.19-72.22,4.73-11.56-7-24.76-11.29-39.4-17.79l38.44-57L698,509.42c-11.92,10.4-23.84,20.75-35.72,31.19-27.09,23.83-27.09,23.83-64,4.79,21.54-29.94,42.25-59.95,64.64-88.64,3-3.84,15.6-3.88,21.64-1.08,52.53,24.36,99.77,57.25,143,95.73C935.86,647.73,1005.65,767.6,1044.2,906.5,1046.13,913.36,1047.87,920.29,1049.68,927.12Z"/><path id="Path_232" data-name="Path 232" class="cls-2" d="M1135.37,1000.92l-16.62,12.74c-12-11.92-11.49-24,1.12-34.57,11.33-9.46,13.13-31.12,35.36-27.58,2,.33,5.94-7.71,8.11-12.31,84.57-180.83,226.79-288.12,420.55-329.62,34.48-7.38,35.36-7.45,47.87,25.78,8.08,21.5,13.13,44.12,19,63.52-61.79,13.14-119,25.84-176.47,37.4-5.74,1.18-13.59-2.63-18.94-6.34-8.34-5.78-15.36-13.46-26.49-18.06,3.28,11.53,6.56,23,10.11,35l-96.59,43.66-14.28-12.6c5.88,22.16-10,28.85-23.47,37.78-14.71,9.85-28.6,20.69-43.83,31.85l-20.32-12.25q-53.16,83.52-105.68,166.12Z"/><path id="Path_233" data-name="Path 233" class="cls-2" d="M882.83,889.56c-9.84,3.28-16.87,8-22.45,6.57C836.22,890.74,812.45,883.59,788,877c-2-10-4.1-20.09-7.15-35.1l-12.35,30.27c-36.9-4.53-73.31-7.88-109.16-14.28-8.63-1.54-15.46-13.13-24.16-21.27L629,857.32c-14.45,0-29.55.75-44.29-.49-3.84-.33-8.83-6.34-10.44-10.77-3.55-9.85-5.29-20.52-11.82-30.24-2.36,13.13-4.73,26.5-7.42,41.66l-48.62,6.34,8.11-99.67c35.16,3.28,68.94,4.79,102.27,9.85,121.07,18.81,232.53,60.93,328.07,140,7.06,5.88,13.85,12,20.75,18.09q43.76,38.45,87.52,77c9.85,8.76,12.25,17.89,1.28,28.95C997.38,987.1,949.74,924.72,882.83,889.56Z"/><path id="Path_234" data-name="Path 234" class="cls-2" d="M685.2,970.72l-98.49,12.6q-2.76-24.65-5.52-49.5h-3.87C576,944,572.26,954.63,574,964.32c3.28,20.15-6.57,26.85-23.58,29.25-5.61.79-11.06,2.5-17.6,4L523.44,964,516,1003.25l-3.68.39c-2.07-23-4.66-46.22-5.61-69.4,0-3.28,7.32-8.7,12.11-10,170-47.24,330.24-35.36,473.91,78.07,13.56,10.7,29,18.94,43.4,28.73s18.25,22.26,9.16,38.21c-3.12,5.42-4.1,12-6.86,20.59-32.83-84.51-107.13-113.07-180.14-147.31-2.6,12.5-4.53,21.8-5.68,27.28-45.34,0-88.45.33-131.52-.46-4.73,0-10.83-5.88-13.72-10.6-5.62-9.26-9.43-19.7-18.59-29.19C687.49,943.14,686.38,956.76,685.2,970.72Z"/><path id="Path_235" data-name="Path 235" class="cls-2" d="M1134.78,1001.41a171.71,171.71,0,0,1,19.27-15.26c4.83-2.86,11.26-2.89,16.84-4.7a21.44,21.44,0,0,0,9.26-4.92c103-116.29,237.5-172.1,386.41-199.61,33.19-6.14,66.94-9.19,103.78-14.12,2.33,33.82,4.37,63.5,6.57,94.23-33.65,10.14-29.75-28.3-49.48-37.6,1.15,11.66,2.23,22.36,3.28,32.83-19.92,0-38.14.86-56.2-.59-4.73-.36-9.65-7.35-13.13-12.24-4.73-6.57-8.21-14.28-16.09-20.75l-2.23,31.71c-51.39,8.21-101.78,15.73-151.68,24.46-30.07,5.09-59.62,12.12-89.17,18.88a33.91,33.91,0,0,0-13.36,8c-35.23,30.14-70.22,60.54-105.32,90.81-17.79,15.33-35.69,30.56-53.94,46.16-8.83-8.87-9.23-17.2.23-26.27,2.92-2.79,3.87-7.58,5.71-11.46Z"/><path id="Path_236" data-name="Path 236" class="cls-2" d="M1495.25,930.6c-1.24,11.23-2.46,22.42-4,36.44-32.83,0-65.93.3-99-.46-3.28,0-6.76-6.57-8.93-10.64a174.5,174.5,0,0,0-10.15-19.7c-2.1,26.86-13.46,40.32-42.38,32.11l-6.21-21.21c-72.39,37-151.7,62.22-175.54,155.85-3-9.06-5.58-16.42-8-23.57-2.66-8.05-5.71-16-7.55-24.26-.72-3.29,0-8.84,2.33-10.58,16.42-12.6,25-36.86,51.78-35.16,4,.27,8.53-5.48,12.6-8.7,106.54-83.55,228.4-109.29,360.45-93.89C1598,911.19,1635,920,1673,926.73c-1.9,25.9-3.61,48.95-5.38,73-36.9-.69-31.52-35.16-47.87-57.16v41.6c-34.8-5.29-66.84-9.85-98.49-15.53-4.17-.76-8.08-7.52-10.51-12.31-4.2-8.44-7.15-17.5-10.63-26.27Z"/><path id="Path_237" data-name="Path 237" class="cls-2" d="M1137.08,1128.08c-6.93-14.68-14.19-29.22-20.59-44.13a76.15,76.15,0,0,1-3.28-16.64l8.67-2.53c8.2,18.22,17.07,36.11,24.29,54.82,2.17,5.65,2,15.73-9.85,8Z"/><path id="Path_238" data-name="Path 238" class="cls-2" d="M1136.48,1127.55v21.6c-10-26.59-32.83-40.58-37.16-64.41l5.84-3.29L1137,1128Z"/><path id="Path_239" data-name="Path 239" class="cls-2" d="M1045.35,1146.65l32.83-63.23,7.19,3.71C1078.21,1110.11,1058.81,1127,1045.35,1146.65Z"/><path id="Path_240" data-name="Path 240" class="cls-2" d="M1044.23,1124l21.6-55.61C1075.68,1076.92,1075.68,1076.92,1044.23,1124Z"/><path id="Path_241" data-name="Path 241" class="cls-2" d="M1356.84,1129.45H1358c0-148.68-120.53-269.21-269.21-269.21S819.6,980.77,819.6,1129.45H947.94l45.66,9.85s123.41,10.74,197.9-4.5,188.84,10.38,188.84,10.38S1369.31,1137.86,1356.84,1129.45Z"/></g><g id="vagues"><path id="Path_242" data-name="Path 242" class="cls-2" d="M1635.37,1129.45l-11.16-.72a302.81,302.81,0,0,0-32.17.53c-14,.88-30.93,2.82-50.4,4.62s-41.53,3.09-65.82,3c-12.15-.2-24.92-.53-38.12-1.38s-26.86-2.07-40.58-4a360.73,360.73,0,0,1-42.38-9.22c-7.52-2-15.63-3.94-23.94-5.65s-16.84-2.92-25.41-3.91a506.56,506.56,0,0,0-52.1-3,482.42,482.42,0,0,0-54.56,2.1c-18.65,1.81-37.33,5.19-54.83,8a504.82,504.82,0,0,1-53.05,5.65c-18.06.92-36.11,1.05-54,.72a447.18,447.18,0,0,1-51.45-3.81c-8.31-1-16.58-2.59-25-4.1s-17.23-3.28-26.26-4.63-18.32-2.2-27.38-2.69c-4.53,0-9-.23-13.49-.2s-8.9.17-13.14.43a765.21,765.21,0,0,0-94.09,11.55c-28.72,4.93-55,9.33-79.38,12.22a421.6,421.6,0,0,1-65.3,3c-19.44-.46-36.28-1.77-50-3s-24.43-2.69-31.65-3.68l-10.87-1.61s3.61,1.32,10.6,3.55,17.33,5.32,30.86,8.8,30.17,7.29,49.9,10.47a387.75,387.75,0,0,0,68.12,5.48c25.08,0,52.53-1.67,81.72-3.94s59.35-4.53,91-4c4,0,7.72.27,11.59.36s7.65.59,11.49.89c7.62.85,15.2,1.94,23,3.55s16,3.57,24.69,5.58,17.73,4,27,5.51a429.51,429.51,0,0,0,56.7,5.75c19.08.72,38.18.75,57.88-.23a469.65,469.65,0,0,0,58.05-6.73c18.77-3.29,35.68-6.86,52.52-9.1s33.43-3.44,50-4.07,32.83-.85,48.32,0a320.18,320.18,0,0,1,45,5.39,360,360,0,0,0,46.62,6,427,427,0,0,0,43.53,0c13.79-.55,27-1.64,39.4-2.92a581.25,581.25,0,0,0,66.94-11.55c19.34-4.5,35.65-8.87,49.24-11.86s24-4.66,31.26-5.68Z"/><path id="Path_243" data-name="Path 243" class="cls-2" d="M1594.4,1197.9a11,11,0,0,1-2.3,1.15,53.4,53.4,0,0,1-7.22,2.14,199.72,199.72,0,0,1-28.73,3.54,895.36,895.36,0,0,1-106.54-1.54c-11.2-.76-23-1.84-35-3.28s-24.82-3.09-38.08-4.73-27-3.28-41.3-4.34-28.92-2-44-2.46c-30.07-1-61.62-1.34-94.48,0-16.42.69-33.13,1.9-49.87,3.29s-33.59,2.88-50.63,3.9c-34,2.17-67.5,2.63-99.8,2.76s-63.33-.69-92.71-3.28c-14.68-1.28-29.25-2.92-43.63-3.88s-28.34-1.24-41.76-1.15c-26.86.3-51.68,1.81-74.26,3.48-45.24,3.29-81.62,7.65-106.74,10.74s-39,5.19-39,5.19l39.4-1.61c25.25-.92,61.82-2.3,106.93-2.86,22.52-.23,47.21-.26,73.51.76,13.13.59,26.62,1.51,40.48,3s28.17,3.71,43.17,5.55a904.87,904.87,0,0,0,94.52,6c32.83.49,66.61.39,101.41-1.81,17.4-1,34.54-2.66,51.22-4.23s32.83-3,49-4c32.08-2,63.3-2.56,93-2.62q22.26,0,43.3.72c14,.46,27.58,1.35,40.78,2.33s26.06,2,38.47,2.69,24.4,1,35.75,1.09a772.21,772.21,0,0,0,107.36-6.37,194.3,194.3,0,0,0,28.6-6.18,53,53,0,0,0,7.09-2.85A10.72,10.72,0,0,0,1594.4,1197.9Z"/><path id="Path_244" data-name="Path 244" class="cls-2" d="M1429.56,1249.28l-26.46,1.55c-17,.92-41.67,2.33-72,3.28-15.17.46-31.82.85-49.25.36s-36.11-2.46-56-4.92c-39.59-5.06-84.11-11.72-131.52-11.76-11.81,0-23.57.23-35.19,1.18a335.76,335.76,0,0,0-34.18,4.37c-11,1.94-21.37,4.1-31.45,5.61s-20,2.57-29.84,3.29c-19.7,1.34-38.64,1.47-56.44,1.41s-34.43-.43-49.6-.85c-30.4-.83-55.06-1.81-72.23-2.47l-26.49-1.08s9.25,1.81,26.1,4.63,41.26,6.57,71.63,10.37c15.17,1.87,31.82,3.65,49.8,5.09s37.3,2.56,57.92,2.27c10.3-.2,20.94-.72,31.78-2s21.6-3.06,32.2-4.6a415.71,415.71,0,0,1,65.66-4.27c45.67,0,89.2,5.09,129.68,8.08a491.59,491.59,0,0,0,58.08,1.34c18.25-.88,34.93-2.72,50.13-4.63,30.4-3.87,54.73-8.14,71.54-11.23S1429.56,1249.28,1429.56,1249.28Z"/><path id="Path_245" data-name="Path 245" class="cls-2" d="M1057.89,1302.11s-5.29-.72-14.88-1.57-23.54-1.65-40.74-1.9c-34.44-.66-81.65,1.44-133.13,3s-98.29,1-132.47.85l-55.45-.42s20.52,5.87,54.4,11.88a666.24,666.24,0,0,0,134.18,10.64c52.76-1.64,99.51-9.52,133.26-14.55,16.87-2.59,30.53-4.69,40-6Z"/><path id="Path_246" data-name="Path 246" class="cls-2" d="M1510.39,1295.24s-5.26-.62-14.84-1.37-23.44-1.45-40.61-1.35-37.56,1.12-59.92,2.33-46.65,2.2-72.23,2c-51.54-.43-98.65-.3-132.73.66s-55.25,2.1-55.25,2.1,20.88,3.77,54.76,7.94a1183.54,1183.54,0,0,0,133.16,9.42,513.62,513.62,0,0,0,73.93-5.22c22.46-3.28,42.35-6.56,59.1-9.19s30.4-4.4,39.89-5.58Z"/><path id="Path_247" data-name="Path 247" class="cls-2" d="M1413.4,1369.74s-36.67-2.86-96-5.75c-29.54-1.44-65-2.85-104.17-3.94-19.7-.52-40.08-1.08-61.62-1.21s-43.86.46-66.65,1.93a2070.16,2070.16,0,0,1-230.3,6.57c-29.54-.85-53.51-2.26-70.09-3.28s-25.7-1.94-25.7-1.94,8.93,2.27,25.24,5.52,40.06,7.48,69.64,11.22a1128.53,1128.53,0,0,0,232.7,4.8q33.58-2.17,65.36-2.86l61.43-1.41c39.2-1.05,74.52-2.5,104.17-3.94C1376.73,1372.63,1413.4,1369.74,1413.4,1369.74Z"/><path id="Path_248" data-name="Path 248" class="cls-2" d="M1301.88,1424l-16.61.59c-10.64.36-26.07.75-44.91.3-9.42-.26-19.7-.76-30.73-1.58s-23-1.9-35.72-2.59c-25.9-1.58-54,.82-82.6,2.79-14.35,1-28.23,1.81-41.66,2.23s-26.27.2-38.81,0l-66.68-1.31c-38.11-.66-61.85-.46-61.85-.46s23,5.51,60.77,11.92c18.88,3.28,41.37,6.56,66.61,9.22,12.61,1.25,26,2.4,40.12,2.6s28.43-.27,43.08-1.28c29.35-2.07,56.33-5.75,80.82-6.34,12.38-.39,24.4-.56,35.72-1.12s21.93-1.44,31.52-2.62a420.82,420.82,0,0,0,44.85-8.18c5.22-1.18,9.22-2.33,12-3Z"/></g></g><g id="CHAMBRES_TOUT_CONFORT" data-name="CHAMBRES TOUT CONFORT"><g class="cls-3"><path class="cls-4" d="M4173.68,1438.61q-1.74-16.45-11.46-25.56t-24.94-9.09a39.53,39.53,0,0,0-17.41,3.93,42.71,42.71,0,0,0-14.26,11.29,54.69,54.69,0,0,0-9.63,17.68,72.32,72.32,0,0,0-3.5,23.27q0,16.45,6.3,29a49,49,0,0,0,17,19.6,42.13,42.13,0,0,0,23.62,7,52.33,52.33,0,0,0,22.4-5.16,45.51,45.51,0,0,0,18-15l4.55,3.67a61.53,61.53,0,0,1-16.28,15.92,55.58,55.58,0,0,1-17.41,7.62,70.49,70.49,0,0,1-15.84,2,60.19,60.19,0,0,1-24.06-4.72,56.3,56.3,0,0,1-18.9-13.22,59.35,59.35,0,0,1-12.25-19.77,68.21,68.21,0,0,1-4.29-24.42,78.44,78.44,0,0,1,3.77-24.14,66.06,66.06,0,0,1,11.28-21.18,54.53,54.53,0,0,1,19-15q11.46-5.6,26.69-5.6a64.28,64.28,0,0,1,18.55,2.63,61.7,61.7,0,0,1,16.8,8l-.88-9.46H4180v40.61Z"/><path class="cls-4" d="M4199.23,1522.08v-5.78q6.65-.35,9.1-3.06a11.78,11.78,0,0,0,2.71-7.52c.18-3.21.27-6.85.27-10.94v-75.6c0-2.33,0-4.58.17-6.74s.23-4.11.35-5.86l-6.3.35-6.3.35v-7.7h39.38v5.78q-6.48.17-9,3a11.86,11.86,0,0,0-2.8,7.53c-.17,3.14-.26,6.82-.26,11v29h62.65v-36.75q0-3.5.18-6.74c.11-2.15.23-4.11.35-5.86l-6.3.35-6.3.35v-7.7h39.37v5.78q-6.48.17-9,3a11.81,11.81,0,0,0-2.8,7.53c-.18,3.14-.26,6.82-.26,11v74.37q0,4.74-.09,8.14a47,47,0,0,1-.44,5.69l6.3-.35,6.3-.35v7.7h-39.37v-5.78q6.65-.35,9.1-3.06a11.84,11.84,0,0,0,2.71-7.52c.17-3.21.26-6.85.26-10.94v-31.85l-62.65.7v37.62q0,4.74-.09,8.14a47.27,47.27,0,0,1-.43,5.69l6.3-.35,6.3-.35v7.7Z"/><path class="cls-4" d="M4325.06,1522.08v-5.78q5.25,0,8-2.8a21.23,21.23,0,0,0,4.63-7.7l4.29-11.37,36.05-98.18h4.2l39,99.58q1.39,3.68,3.15,9.45a26.93,26.93,0,0,1,1.4,9.8l6-.35,5.95-.35v7.7h-40.08v-5.78q6.64-.16,8.75-3a8.7,8.7,0,0,0,1.58-6.65,31.18,31.18,0,0,0-1.75-7l-6.13-16.45-45.5,1-6.12,18.72q-1.23,4.2-2.19,6.66t-2.19,5.42l6.91-.35,6.74-.35v7.7Zm32.2-45.33h40.42l-12.42-33.42q-1.93-5.43-3.94-10.76t-3.94-10.77H4377q-1.76,4.9-3.59,9.81t-3.76,10Z"/><path class="cls-4" d="M4511.25,1523.83q-7.69-17.49-15.57-34.91t-15.4-35.26q-2.46-5.61-4.81-11.29c-1.58-3.79-3.09-7.62-4.55-11.46s-2.95-7.7-4.46-11.55c0,1.28,0,2.56-.09,3.85s-.09,2.56-.09,3.84q-.18,6.3-.44,15.14t-.61,18.9q-.34,10.07-.52,20.13t-.35,19q-.18,3.84-.27,7.7c-.06,2.56-.2,5-.43,7.17l6.56-.35,6.56-.35v7.7h-33.42v-5.78c3.61-.11,6.27-.9,8-2.36a9.85,9.85,0,0,0,3.23-5.86,54.24,54.24,0,0,0,.88-7.87l3.32-79.8q.18-3.51.27-7c.06-2.34.14-4.61.26-6.83q-3.15.18-6.3.26t-6.3.27v-7.53h26.78l30.09,69.47q2.28,5.25,4.47,10.5t4.55,10.5c1.57,3.5,3.12,7.07,4.64,10.68h.34q1.94-4.73,4.56-11.29c1.75-4.37,3.2-8.14,4.37-11.28q7.69-19.26,16-38.59t16.37-40h25.89v5.78a11.88,11.88,0,0,0-7.17,1.66,10.29,10.29,0,0,0-4,6,36.24,36.24,0,0,0-.87,11.38l4.55,79.62a50.3,50.3,0,0,1,.35,5.78v5.08q3.15-.18,6.39-.27c2.16-.06,4.28-.14,6.39-.26v7.7h-39.2v-5.78c3.61-.11,6.3-1,8.05-2.62a11.27,11.27,0,0,0,3.23-7,61.68,61.68,0,0,0,.27-11.2l-3.5-57.75c-.12-1.86-.24-3.73-.35-5.6l-.36-5.6c-.11-1.86-.23-3.73-.34-5.6-.36.82-.74,1.69-1.14,2.62s-.79,1.93-1.14,3l-39.38,97.3Z"/><path class="cls-4" d="M4605.93,1522.08v-5.78q6.64-.16,9.1-3.06a12.85,12.85,0,0,0,2.71-7.87c.18-3.33.26-7.15.26-11.46v-73.5q0-4.74.18-8.14c.11-2.28.23-4.17.35-5.69l-6.3.35-6.3.35v-7.7q9.61-.18,19.34-.26t20.21-.09q20.3,0,31.76,7.18t11.11,22.75a22.31,22.31,0,0,1-3.23,11.2,30.39,30.39,0,0,1-9.63,9.88,41.83,41.83,0,0,1-16,6v.35q19.25,0,29.05,8.84a28.76,28.76,0,0,1,9.8,22.31,31.15,31.15,0,0,1-5.42,18.38,34.83,34.83,0,0,1-14.7,11.81,51.84,51.84,0,0,1-21.18,4.11Zm26.78-7c1.86.12,4.11.21,6.73.26s5.08.09,7.35.09h4.46q13.48,0,21.79-6.74t8.31-19.86q0-10.68-4.19-16.62a22.6,22.6,0,0,0-11-8.41,43.82,43.82,0,0,0-14.88-2.44c-3.5,0-6.67,0-9.53.08s-5.69.21-8.49.44v39.55c0,3.15,0,5.84-.09,8A46.61,46.61,0,0,1,4632.71,1515.08Zm.52-60,12.77-.34q10-.18,15.75-4.12a22.57,22.57,0,0,0,8.32-9.88,29.44,29.44,0,0,0,2.36-12.43q-.18-9.45-4.29-14.35a20.51,20.51,0,0,0-10.06-6.65,41.65,41.65,0,0,0-11.73-1.75c-3.85,0-6.71.52-8.57,1.58a7.73,7.73,0,0,0-3.68,5.25,46.11,46.11,0,0,0-.87,10.14Z"/><path class="cls-4" d="M4713.21,1522.08v-5.78q6.65-.35,9.1-3.06a11.84,11.84,0,0,0,2.71-7.52c.17-3.21.26-6.85.26-10.94v-75.6q0-3.5.18-6.74c.11-2.15.23-4.11.35-5.86l-6.3.35-6.3.35v-7.7l19.86-.35q10.07-.17,20.21.18,17,.16,27.39,3.93T4796,1414a28.13,28.13,0,0,1,4.9,16.71,36,36,0,0,1-2.54,13.91,29.81,29.81,0,0,1-9.8,12.69q-7.08,5.61-20.38,8.4a24.35,24.35,0,0,1,6.12,6.3q2.63,3.85,5.95,8.93l11.9,18.72q3,4.72,5.78,8.49a22.18,22.18,0,0,0,6.47,5.95,17.5,17.5,0,0,0,9.1,2.18v5.78h-22a63.68,63.68,0,0,1-8.49-9.1c-2.27-3-4.63-6.48-7.08-10.32l-11.73-18.73q-2.28-3.67-5.16-8.49a35.88,35.88,0,0,0-6.56-8.14q-2.81.18-5.87.18t-6-.18v34q0,4.74-.09,8.14a47,47,0,0,1-.44,5.69c1.4-.12,2.8-.2,4.2-.26s2.8-.15,4.2-.27,2.8-.17,4.2-.17v7.7Zm38.15-61.25a51.93,51.93,0,0,0,16.88-3.15,23.94,23.94,0,0,0,11.47-8.93q4.2-6.12,4.2-16.09a33.69,33.69,0,0,0-1.84-11.64,19.77,19.77,0,0,0-5.69-8.31,25.06,25.06,0,0,0-9.8-5,52.26,52.26,0,0,0-14-1.67q-6.48,0-9,2.63a10.93,10.93,0,0,0-2.8,7.26c-.18,3.1-.26,6.74-.26,10.94v33.6l5.33.35A42.29,42.29,0,0,0,4751.36,1460.83Z"/><path class="cls-4" d="M4884,1476.75q0-7.7-2.1-11a9,9,0,0,0-6.65-4,62.57,62.57,0,0,0-12.07-.35l-12.78.52V1502q0,4.72-.08,8a46.73,46.73,0,0,1-.44,5.61l33.42-.53a36.16,36.16,0,0,0,13.3-2.54,17.44,17.44,0,0,0,8.75-8.31q3.15-5.94,3.15-16.27h5.95l-1.05,34.12h-90.3v-5.78q6.66-.35,9.1-3.06a11.79,11.79,0,0,0,2.72-7.52c.17-3.21.26-6.85.26-10.94v-75.6q0-3.5.17-6.74c.12-2.15.24-4.11.35-5.86l-6.3.35-6.3.35v-7.7h84.18l.87,30.63h-5.77q0-10.34-3.15-15.67a15.62,15.62,0,0,0-8.49-7.17,33.71,33.71,0,0,0-12-1.66l-15.05.34c-4.31.12-7.41.94-9.27,2.45a10,10,0,0,0-3.41,6.74,88.58,88.58,0,0,0-.62,11.64v28l32.9.17-1.22-15h7.7v36.75Z"/><path class="cls-4" d="M5000.73,1436.68a43.84,43.84,0,0,0-4-15.93,30.6,30.6,0,0,0-10.15-12.25q-6.65-4.71-17-4.72-10.86,0-16.63,6.13a20.22,20.22,0,0,0-5.77,14.34,18.48,18.48,0,0,0,4.2,12.34,38.68,38.68,0,0,0,10.94,8.75q6.74,3.77,14.26,7.27,6.65,3,13.3,6.38a70.79,70.79,0,0,1,12.07,7.79,33.85,33.85,0,0,1,8.67,10.41,30.27,30.27,0,0,1,3.23,14.44,31.1,31.1,0,0,1-4.81,17.15,32.35,32.35,0,0,1-13.91,11.81q-9.1,4.29-22.23,4.29a62.39,62.39,0,0,1-16.27-2.27,49.73,49.73,0,0,1-14.88-6.65l.88,7.52h-9.1l-1.05-37.27h6.82q.89,15.39,10.68,23.36t23.62,8a30.84,30.84,0,0,0,12.6-2.54,21.38,21.38,0,0,0,9.19-7.44,22.53,22.53,0,0,0-.79-25,38.13,38.13,0,0,0-10.85-9.1q-6.65-3.84-14.17-7.35-6.66-3-13.13-6.3a69.23,69.23,0,0,1-11.81-7.61,33.47,33.47,0,0,1-8.57-10.24,29.63,29.63,0,0,1-3.24-14.35,34.22,34.22,0,0,1,1.57-9.8,29,29,0,0,1,5.52-10.06,28.65,28.65,0,0,1,10.85-7.88q6.9-3.06,17.58-3.06a69.8,69.8,0,0,1,15,1.84,40.89,40.89,0,0,1,15.48,7.09l-.7-7.53H5007v38.5Z"/><path class="cls-4" d="M5168.9,1436.5a68.94,68.94,0,0,0-2.1-17.14q-1.94-6.84-6.74-10.24c-3.21-2.28-7.85-3.35-13.91-3.24h-14.88l-.17,95.37q0,4.74-.09,8.14a45.06,45.06,0,0,1-.44,5.69l7.27-.35,7.26-.35v7.7H5104v-5.78q6.66-.35,9-3.14a12.56,12.56,0,0,0,2.62-7.62c.18-3.21.26-6.79.26-10.76l.18-88.73-18,.18q-11,0-15.57,7.35t-4.55,22.92h-6.48l1.05-36.92h102l1.05,36.92Z"/><path class="cls-4" d="M5249.92,1524.88q-16.62,0-28.52-5.6a53,53,0,0,1-19.34-15,62.74,62.74,0,0,1-10.94-20.74,77.06,77.06,0,0,1-3.5-22.75,71.74,71.74,0,0,1,3.68-22.31,64.68,64.68,0,0,1,11.29-20.74,57.2,57.2,0,0,1,19.07-15.23q11.46-5.76,26.86-5.77,16.11,0,27.83,5.77a56.19,56.19,0,0,1,19.34,15.32,67.63,67.63,0,0,1,11.37,20.74,69.36,69.36,0,0,1,3.76,22.22,71.26,71.26,0,0,1-3.67,22.14,65.69,65.69,0,0,1-11.29,20.82,56.9,56.9,0,0,1-19,15.32Q5265.5,1524.89,5249.92,1524.88Zm.35-7.17a37.19,37.19,0,0,0,18.9-4.64,40.68,40.68,0,0,0,13.39-12.43,58.84,58.84,0,0,0,8-17.32,69.71,69.71,0,0,0,2.71-19.16,80,80,0,0,0-3-21.53,68.48,68.48,0,0,0-8.75-19.42,46.94,46.94,0,0,0-14.26-14.09,35.56,35.56,0,0,0-19.34-5.34,37.24,37.24,0,0,0-19,4.72,41.36,41.36,0,0,0-13.47,12.52,58.7,58.7,0,0,0-8.05,17.32,70.35,70.35,0,0,0-2.72,19.34,80.32,80.32,0,0,0,2.72,20.12,70.76,70.76,0,0,0,8.31,19.61,46.34,46.34,0,0,0,14.17,14.7Q5238.55,1517.71,5250.27,1517.71Z"/><path class="cls-4" d="M5362.27,1405.36q-5.78,0-8.31,2.44a10,10,0,0,0-3.06,5.69,36.23,36.23,0,0,0-.53,5.69v44.1a133.42,133.42,0,0,0,1.32,19,53.49,53.49,0,0,0,5,16.53,28.14,28.14,0,0,0,10.94,11.73q7.26,4.38,19,4.38,12.6,0,20.56-6a34.44,34.44,0,0,0,11.73-16.46,74.26,74.26,0,0,0,3.93-24.14l.53-49.18q0-3.5.17-6.74c.12-2.15.24-4.11.35-5.86l-6.21.35-6.21.35v-7.7H5444v5.78q-6.66.17-9.19,3a11.86,11.86,0,0,0-2.8,7.53c-.17,3.14-.26,6.82-.26,11l-.35,40.6a93.83,93.83,0,0,1-2.45,21.7,54.51,54.51,0,0,1-8,18.37,38.78,38.78,0,0,1-14.53,12.69q-9,4.63-22.14,4.64-14,0-23.53-3.67a33.44,33.44,0,0,1-15.23-11.38q-5.69-7.69-8.14-19.42a139.09,139.09,0,0,1-2.45-28v-35.53q0-4.55.27-10.76c.17-4.14.32-7.32.43-9.54q-3.15.18-6.3.26t-6.3.27v-7.53h39.2Z"/><path class="cls-4" d="M5550.57,1436.5a68,68,0,0,0-2.1-17.14,18,18,0,0,0-6.73-10.24c-3.21-2.28-7.85-3.35-13.92-3.24H5513l-.18,95.37q0,4.74-.08,8.14a47,47,0,0,1-.44,5.69l7.26-.35,7.26-.35v7.7h-41.12v-5.78q6.65-.35,9-3.14a12.57,12.57,0,0,0,2.63-7.62c.17-3.21.26-6.79.26-10.76l.17-88.73-18,.18q-11,0-15.58,7.35t-4.55,22.92h-6.47l1-36.92h102l1.05,36.92Z"/><path class="cls-4" d="M5713.67,1438.61q-1.76-16.45-11.46-25.56t-24.94-9.09a39.5,39.5,0,0,0-17.41,3.93,42.61,42.61,0,0,0-14.26,11.29,54.5,54.5,0,0,0-9.63,17.68,72.32,72.32,0,0,0-3.5,23.27q0,16.45,6.3,29a49,49,0,0,0,17,19.6,42.13,42.13,0,0,0,23.62,7,52.37,52.37,0,0,0,22.4-5.16,45.51,45.51,0,0,0,18-15l4.55,3.67a61.68,61.68,0,0,1-16.28,15.92,55.68,55.68,0,0,1-17.41,7.62,70.63,70.63,0,0,1-15.84,2,60.19,60.19,0,0,1-24.06-4.72,56.3,56.3,0,0,1-18.9-13.22,59.35,59.35,0,0,1-12.25-19.77,68.21,68.21,0,0,1-4.29-24.42,78.43,78.43,0,0,1,3.76-24.14,66.08,66.08,0,0,1,11.29-21.18,54.53,54.53,0,0,1,19-15q11.46-5.6,26.69-5.6a64.28,64.28,0,0,1,18.55,2.63,61.7,61.7,0,0,1,16.8,8l-.88-9.46H5720v40.61Z"/><path class="cls-4" d="M5799.94,1524.88q-16.62,0-28.52-5.6a53,53,0,0,1-19.34-15,62.74,62.74,0,0,1-10.94-20.74,77.06,77.06,0,0,1-3.5-22.75,71.74,71.74,0,0,1,3.68-22.31,64.68,64.68,0,0,1,11.29-20.74,57.2,57.2,0,0,1,19.07-15.23q11.46-5.76,26.86-5.77,16.11,0,27.83,5.77a56.19,56.19,0,0,1,19.34,15.32,67.63,67.63,0,0,1,11.37,20.74,69.36,69.36,0,0,1,3.76,22.22,71.26,71.26,0,0,1-3.67,22.14,65.69,65.69,0,0,1-11.29,20.82,56.9,56.9,0,0,1-19,15.32Q5815.52,1524.89,5799.94,1524.88Zm.35-7.17a37.19,37.19,0,0,0,18.9-4.64,40.68,40.68,0,0,0,13.39-12.43,58.84,58.84,0,0,0,8.05-17.32,69.71,69.71,0,0,0,2.71-19.16,80,80,0,0,0-3-21.53,68.48,68.48,0,0,0-8.75-19.42,46.94,46.94,0,0,0-14.26-14.09,35.56,35.56,0,0,0-19.34-5.34,37.24,37.24,0,0,0-19,4.72,41.36,41.36,0,0,0-13.47,12.52,58.7,58.7,0,0,0-8.05,17.32,70.35,70.35,0,0,0-2.72,19.34,80.32,80.32,0,0,0,2.72,20.12,70.76,70.76,0,0,0,8.31,19.61,46.34,46.34,0,0,0,14.17,14.7Q5788.57,1517.71,5800.29,1517.71Z"/><path class="cls-4" d="M5972.32,1524.88l-69.82-93.8c-1.05-1.4-2.08-2.77-3.07-4.11s-2-2.72-3.06-4.11h-.17l.52,74.89v8.75q0,4.38-.35,8.58l6.3-.35,6.3-.35v7.7h-32v-5.78c3.61,0,6.21-.78,7.78-2.36a11,11,0,0,0,3.06-5.6,27.74,27.74,0,0,0,.71-5.86l.17-84.18v-11.72c-1.87.12-3.79.24-5.78.35l-5.94.35v-7.7h20.82l65.62,87.85q2.28,3,4.47,6t4.46,5.95h.18l.17-80.15q0-3.5.17-6.74c.12-2.15.24-4.11.36-5.86l-6.31.35-6.3.35v-7.7h32.2v5.78c-4.31.11-7.29,1.1-8.92,3a11.66,11.66,0,0,0-2.62,7.53c-.12,3.14-.18,6.82-.18,11l-.35,98Z"/><path class="cls-4" d="M6009.94,1522.08v-5.78q6.66-.35,9.1-3.06a11.79,11.79,0,0,0,2.72-7.52c.17-3.21.26-6.85.26-10.94v-75.6q0-3.5.17-6.74c.12-2.15.24-4.11.35-5.86l-6.3.35-6.3.35v-7.7h81.2l.88,30.63h-5.78q0-10.34-3.32-15.67a16.39,16.39,0,0,0-8.75-7.17,34.42,34.42,0,0,0-12.08-1.66l-12.77.34q-6.48.18-8.93,3.07a13,13,0,0,0-2.8,7.61q-.35,4.73-.35,10.85v30.1l30.45.18-1.22-15.23h7.7v36.92h-5.6q0-7.87-2.19-11.19a9.31,9.31,0,0,0-6.74-4,62.73,62.73,0,0,0-11.9-.35l-10.5.52v36.75q0,4.74-.08,8.14a47,47,0,0,1-.44,5.69c2-.12,4-.2,5.95-.26s4-.15,5.95-.27,4-.17,5.95-.17v7.7Z"/><path class="cls-4" d="M6165.34,1524.88q-16.62,0-28.52-5.6a53,53,0,0,1-19.34-15,62.74,62.74,0,0,1-10.94-20.74,77.06,77.06,0,0,1-3.5-22.75,71.74,71.74,0,0,1,3.68-22.31,64.68,64.68,0,0,1,11.29-20.74,57.2,57.2,0,0,1,19.07-15.23q11.46-5.76,26.86-5.77,16.11,0,27.83,5.77a56.19,56.19,0,0,1,19.34,15.32,67.63,67.63,0,0,1,11.37,20.74,69.36,69.36,0,0,1,3.76,22.22,71.26,71.26,0,0,1-3.67,22.14,65.69,65.69,0,0,1-11.29,20.82,56.9,56.9,0,0,1-19,15.32Q6180.92,1524.89,6165.34,1524.88Zm.35-7.17a37.19,37.19,0,0,0,18.9-4.64,40.68,40.68,0,0,0,13.39-12.43,58.84,58.84,0,0,0,8.05-17.32,69.71,69.71,0,0,0,2.71-19.16,80,80,0,0,0-3-21.53,68.48,68.48,0,0,0-8.75-19.42,46.94,46.94,0,0,0-14.26-14.09,35.56,35.56,0,0,0-19.34-5.34,37.24,37.24,0,0,0-19,4.72A41.36,41.36,0,0,0,6131,1421a58.7,58.7,0,0,0-8.05,17.32,70.35,70.35,0,0,0-2.72,19.34,80.32,80.32,0,0,0,2.72,20.12,70.76,70.76,0,0,0,8.31,19.61,46.34,46.34,0,0,0,14.17,14.7Q6154,1517.71,6165.69,1517.71Z"/><path class="cls-4" d="M6242,1522.08v-5.78q6.66-.35,9.1-3.06a11.79,11.79,0,0,0,2.72-7.52c.17-3.21.26-6.85.26-10.94v-75.6q0-3.5.17-6.74c.12-2.15.24-4.11.35-5.86l-6.3.35-6.3.35v-7.7l19.87-.35q10.05-.17,20.21.18,17,.16,27.39,3.93t15.31,10.68a28.2,28.2,0,0,1,4.9,16.71,36.19,36.19,0,0,1-2.54,13.91,29.81,29.81,0,0,1-9.8,12.69q-7.08,5.61-20.39,8.4a24.23,24.23,0,0,1,6.13,6.3q2.63,3.85,6,8.93l11.9,18.72q3,4.72,5.77,8.49a22.34,22.34,0,0,0,6.48,5.95,17.5,17.5,0,0,0,9.1,2.18v5.78h-22.05a63.11,63.11,0,0,1-8.49-9.1c-2.27-3-4.64-6.48-7.09-10.32l-11.72-18.73q-2.28-3.67-5.16-8.49a35.91,35.91,0,0,0-6.57-8.14c-1.86.12-3.82.18-5.86.18s-4.05-.06-6-.18v34q0,4.74-.08,8.14a47,47,0,0,1-.44,5.69c1.4-.12,2.8-.2,4.2-.26s2.8-.15,4.2-.27,2.8-.17,4.2-.17v7.7Zm38.15-61.25a51.94,51.94,0,0,0,16.89-3.15,23.91,23.91,0,0,0,11.46-8.93q4.2-6.12,4.2-16.09a33.7,33.7,0,0,0-1.83-11.64,19.86,19.86,0,0,0-5.69-8.31,25.13,25.13,0,0,0-9.8-5,52.32,52.32,0,0,0-14-1.67q-6.48,0-9,2.63a10.88,10.88,0,0,0-2.8,7.26c-.18,3.1-.27,6.74-.27,10.94v33.6l5.34.35A42.15,42.15,0,0,0,6280.14,1460.83Z"/><path class="cls-4" d="M6443.59,1436.5a68,68,0,0,0-2.1-17.14,17.94,17.94,0,0,0-6.74-10.24c-3.21-2.28-7.84-3.35-13.91-3.24H6406l-.18,95.37q0,4.74-.08,8.14a47,47,0,0,1-.44,5.69l7.26-.35,7.26-.35v7.7h-41.12v-5.78q6.65-.35,9-3.14a12.63,12.63,0,0,0,2.63-7.62c.17-3.21.26-6.79.26-10.76l.17-88.73-18,.18q-11,0-15.58,7.35t-4.55,22.92h-6.47l1.05-36.92h102l1.05,36.92Z"/></g></g><path id="Path_251" data-name="Path 251" class="cls-5" d="M3414.32,596.39q48.49-108,85.5-163.5t69.5-67q32.5-11.49,44-11.5t11.5,3q0,3-13,9.5t-44.5,52.5q-31.5,46-79.5,141a1551.74,1551.74,0,0,0-84,201q61,0,77.5-6t20-2q3.49,4-9.5,13-33,23-97,27-1,2-16,48-50,155-50,217,0,35,12.5,49t26.5,14q14,0,31-12,57-42,125-181,8-17,15.5-14t-.5,21q-37,79-61.5,116a437,437,0,0,1-55.5,68q-41,39-82,39-46,0-64-38-9-18-9-33t.5-31.5q.49-16.5,3.5-43t14.5-66q11.5-39.5,18-60t19.5-55.5q13-35,14-38-43,0-339-13-61,182-192,326a588.87,588.87,0,0,1-149,119q-114,63-240,63-53,0-118-15.5t-123-59q-58-43.5-82.5-117.5t-1.5-164q12-46,53.5-86t68.5-41q10,0,12,2.5t-1.5,6a24.85,24.85,0,0,1-8.5,5.5q-30,13-62,57-42,58-42,135,0,120,116,179,70,35,164,35a354,354,0,0,0,77-8q339-76,477-439a117.83,117.83,0,0,0-50.5,11.5q-24.5,11.5-32,11.5t-8.5-6q0-17,24-32.5t42-17.5h39q64-160,146-324-26,3-74,7t-78,7q-30,3-74,10t-73,16.5q-29,9.51-64.5,26.5t-59.5,39q-57,54-81,132a226.8,226.8,0,0,0-10,68q0,36,26,70t69,34q85,0,121-98,17-46,17-64.5t-6.5-28q-6.5-9.5,3.5-11.5,7-1,12,8a132,132,0,0,1,12,56q0,30-20,65-34,62-92,83a165.38,165.38,0,0,1-56,10q-28,0-56-12-53-23-78-78-16-33-16-63t9.5-68.5q9.49-38.49,37.5-78.5a219.67,219.67,0,0,1,70-64.5,569.49,569.49,0,0,1,84-40.5q42-16,99.5-24t100-12q42.49-4,102.5-7t89-6q11-19,33.5-46.5t38.5-32q16-4.5,25-4.5,37,0,37,31.5t-41,52.5q-41,21-77,21-27,52-76.5,185.5t-52.5,140.5q75,0,193.5,8.5t145.5,8.5Q3365.82,704.4,3414.32,596.39Zm-210.5-251q-12,0-50,49,65-10,64-35-1-11-11-13A4.11,4.11,0,0,0,3203.82,345.39Zm626,501q-18,18-51,81.5t-39.5,95q-6.5,31.5-6.5,51t15,19.5q19,0,47-35,41-51,81-133,4-9,9-10,8-3,8,6,0,5-3,12-92,186-155,186-29,0-47-28-9-15-9-40t10-61q-80,129-138,129a46.37,46.37,0,0,1-29-10q-30-21-30-72,0-98,85-199,48-56,118-73a142.24,142.24,0,0,1,36-5q46,0,78,32,10,11,6,21t-17,8q-11-36-48-36-43,0-106,68-36,40-67,94-39,65-39,104t25,39q60,0,157-184,19-37,32-50.5t33-13.5q4,0,20.5,3T3829.82,846.39Zm-116,581q-43,0-65.5-26t-22.5-53q0-27,16.5-52a175.21,175.21,0,0,1,41-43.5,383.36,383.36,0,0,1,47.5-31q23-12.5,64.5-28t64.5-23q23-7.5,72-22.5t65-20q18-58,18-88,0-52-29-52a33.21,33.21,0,0,0-8,1q-48,25-57,18a10,10,0,0,1-4-10q1-6,9-8,68-21,112-88,13-20,13-37t-14-33q-14-16-30-16-50,0-83,57-28,47-53,100-6,14-13,9.5t1-20.5q53-104,59-114,45-82,123-82,35,0,53,26,10,14,10,41.5t-26.5,67q-26.51,39.51-71.5,66.5h2q65,0,67,65a241.83,241.83,0,0,1-11,73q76-15,154-179,4-9,10-10,7-3,7,6,0,11-26,58t-49,78q-42,60-102,72-39,107-115.5,183.5t-182.5,107.5Q3734.82,1427.4,3713.82,1427.39Zm-47-99a128.72,128.72,0,0,0-6,39q0,20,15,29t28,9q48,0,105.5-36.5t105.5-92.5a406,406,0,0,0,73-123q-21,7-66,20t-71,21q-70,22-111,46Q3685.82,1271.4,3666.82,1328.39Zm854-482q-18,18-51,81.5t-39.5,95q-6.49,31.5-6.5,51t15,19.5q19,0,47-35,41-51,81-133,4-9,9-10,8-3,8,6,0,5-3,12-92,186-155,186-29,0-47-28-9-15-9-40t10-61q-80,129-138,129a46.37,46.37,0,0,1-29-10q-30-21-30-72,0-98,85-199,48-56,118-73a142.24,142.24,0,0,1,36-5q46,0,78,32,10,11,6,21t-17,8q-11-36-48-36-43,0-106,68-36,40-67,94-39,65-39,104t25,39q60,0,157-184,19-37,32-50.5t33-13.5q4,0,20.5,3T4520.82,846.39Zm312-78-5,18q-51,159-94,232-63,106-132,106-56,0-56-54,0-41,30-127-10,16-15.5,10.5t-2.5-13.5l18-34q19-39,19-78t-16-46q60-10,70-9.5t12.5,8.5a60.27,60.27,0,0,1,2.5,18q0,61-31.5,144t-31.5,111.5q0,28.5,9,33a39.75,39.75,0,0,0,18,4.5q26,0,59-42t66-124q-14-32-14-56.5t6-43.5q18-57,57-71a43.06,43.06,0,0,1,15-3Q4832.83,752.39,4832.82,768.39Zm300,78q-18,18-51,81.5t-39.5,95q-6.49,31.5-6.5,51t15,19.5q19,0,47-35,41-51,81-133,4-9,9-10,8-3,8,6,0,5-3,12-92,186-155,186-29,0-47-28-9-15-9-40t10-61q-80,129-138,129a46.37,46.37,0,0,1-29-10q-30-21-30-72,0-98,85-199,48-56,118-73a142.24,142.24,0,0,1,36-5q46,0,78,32,10,11,6,21t-17,8q-11-36-48-36-43,0-106,68-36,40-67,94-39,65-39,104t25,39q60,0,157-184,19-37,32-50.5t33-13.5q4,0,20.5,3T5132.82,846.39Zm348-57q-123,216-123,282,0,26,19,26,51,0,137-173,6-14,12-11t6,8q0,5-4,12-53,107-89.5,147.5t-73,40.5q-36.49,0-55.5-28-10-13-10-35.5t10-54.5q10-32,55-104,11-18,11-28.5t-17-10.5q-17,0-65,45-72,66-139,198-6,10-13.5,12.5t-29.5,3.5q-22,1-29,5,16-32,63-131,84-175,110-200,12-12,33-12,4,0,20.5,3t24.5,1q-37,20-121,188,47-58,85.5-92.5t92.5-64q54-29.49,79-29.5A29.53,29.53,0,0,1,5480.82,789.39Zm337,57q-18,18-51,81.5t-39.5,95q-6.49,31.5-6.5,51t15,19.5q19,0,47-35,41-51,81-133,4-9,9-10,8-3,8,6,0,5-3,12-92,186-155,186-29,0-47-28-9-15-9-40t10-61q-80,129-138,129a46.37,46.37,0,0,1-29-10q-30-21-30-72,0-98,85-199,48-56,118-73a142.24,142.24,0,0,1,36-5q46,0,78,32,10,11,6,21t-17,8q-11-36-48-36-43,0-106,68-36,40-67,94-39,65-39,104t25,39q60,0,157-184,19-37,32-50.5t33-13.5q4,0,20.5,3T5817.82,846.39Zm1207-489q0,87-56.5,182t-156,165.5q-99.49,70.5-205.5,88.5-61,123-88,172l-21,34q198,49,328,149,66,51,89,125,12,38,12,65t-10.5,45.5q-10.5,18.51-24.5,25.5t-20,7c-4,0-6-1.66-6-5s3.83-13.16,11.5-29.5,11.5-35.5,11.5-57.5-4.67-46.33-14-73-26.67-51.16-52-73.5-60.5-43.33-105.5-63-84-33.66-117-42-77.17-17.83-132.5-28.5q-85,119-177,163-55,27-97.5,27t-75.5-17q-57-28-57-85t75-100q85-50,230-50,52,0,94,8,45-70,105-193h-11q-63,0-117-21t-86-57q-42-47-42-106,0-31,15.5-67t69-73q53.51-37,135.5-56a101.44,101.44,0,0,1,22-3q9,0,11,5t-8,9a104.42,104.42,0,0,1-23,6,184.46,184.46,0,0,0-80,29q-64,41-89,126a133.79,133.79,0,0,0-6,38.5q0,18.51,7,44.5t30,53.5q23,27.51,62.5,38.5t69,11a457.35,457.35,0,0,0,54.5-3l85-214q88-226,210-278,32-13,62.5-13t58,19.5q27.49,19.5,29.5,47.5Q7024.83,346.39,7024.82,357.39Zm-42,1q0-38-35-38-51,0-124,89-57,71-109.5,171.5t-93.5,185.5q139-31,250.5-152.5T6982.82,358.39Zm-554,680a460.53,460.53,0,0,0-101-11q-52,0-107,15-115,30-135,85a51.28,51.28,0,0,0-4,19q0,26,28.5,42.5a122.43,122.43,0,0,0,62.5,16.5q47,0,102-26Q6357.82,1139.4,6428.82,1038.39Zm588-271q73,0,73,92,0,42-22,90-28,65-84,118,13,25,47,25,27,0,51-27,30-31,43-54.5t19-34.5q6-11,15.5-31.5t11.5-25a7.1,7.1,0,0,1,7-4.5q10-1,10,7a16.07,16.07,0,0,1-2,7l-6,14q-6,14-9,20t-10.5,21.5q-7.5,15.51-13,24.5t-15,24a232.69,232.69,0,0,1-17,24q-7.5,9-18.5,20a111.47,111.47,0,0,1-21,17q-25,15-47,15-41,0-64-26-46,34-85,34-73,0-73-92,0-42,22-90,30-70,84.5-119T7016.82,767.39Zm11,31q-27,0-64,36t-66,98q-35,72-35,118t35,46q25,0,56-27-16-23-16-49,2-43,35-43,13,0,21.5,9t8.5,16.5a63.78,63.78,0,0,1-2,15.5q17-25,39-71,25-51,25-100T7027.82,798.39Zm353,261q0,32,26,32,47,0,125-157,3-6,5.5-12a13.54,13.54,0,0,1,8-8q5.51-2,7.5,2.5t-2,14.5q-80,186-162,186-27,0-43-24t-16-47.5a179,179,0,0,1,5-43.5q-58,96-100,109a60.53,60.53,0,0,1-23.5,5,85.07,85.07,0,0,1-22.5-3q-49-13-49-78,0-44,22.5-97.5t63.5-102.5q41-49,99-66,21-7,49.5-7t63.5,18q68-128,116-237,14-33,27.5-42.5t25-9.5h14q2.51,0,19,2.5t25.5,1.5q-23,21-122,204-126,234-152,312Q7380.82,1040.4,7380.82,1059.39Zm49-263q-13-13-36.5-13t-65.5,35q-67,56-111,138-29,54-29,89a64,64,0,0,0,6.5,29q6.49,13,20.5,13,34,0,84-70T7429.82,796.39Zm38,637q-94,0-94-77,0-64,87-115,74-43,189-81,53-17,77-27,26-76,26-166,0-18-2-27-28,57-77,117-58,72-115,56-52-22-52-86,0-86,86-189,47-56,110-71a120.14,120.14,0,0,1,34-5q45,0,88,30,16,13,16,22t-6,17.5q-6,8.5-12.5,2t-8.5-12.5q-13-37-42-37-53,0-119,74a526.39,526.39,0,0,0-64,90q-33,60-33,92.5t20,43.5a35.17,35.17,0,0,0,14,3q23,0,57.5-31.5t64-80q29.51-48.49,37.5-75.5t19.5-34a56.08,56.08,0,0,1,25.5-8q14-1,19-5,8,45,8,105.5t-21,137.5q46-33,65.5-59t31-47q11.51-21,20.5-41.5t12-26.5a13.8,13.8,0,0,1,10-7.5q7-1.5,7,6.5,0,5-3,12-44,91-73.5,131.5t-80.5,64.5q-24,68-69.5,135t-114.5,118Q7535.82,1433.39,7467.82,1433.39Zm-73-58q0,38,49,38,29,0,65.5-17t60.5-35q41-33,90-98,37-52,57-101l-35,12q-156,54-220,96-47,31-62,79Q7394.83,1364.39,7394.82,1375.39Zm578-412q-14,34-14,76,0,28,12.5,44.5t35.5,16.5q91,0,165-171,7-16,17-14a4.74,4.74,0,0,1,4,5q0,4-22.5,52.5t-45.5,78.5q-51,70-126,70-40,0-68-26t-28-71q0-45,21.5-95.5a365.87,365.87,0,0,1,58.5-94q37-43.5,85-63.5,23-10,44-10a69,69,0,0,1,39,12q17,14,17,31,0,60-72,115-22,17-62,30.5T7972.82,963.39Zm168-160q0-20-16-20-28,0-85,69a514.31,514.31,0,0,0-60,94q17,0,49.5-12t56.5-32Q8140.83,855.4,8140.82,803.39Z"/></g></svg>