<svg xmlns="http://www.w3.org/2000/svg" xmlns:xlink="http://www.w3.org/1999/xlink" viewBox="0 0 464 464"><defs><style>.cls-1{fill:url(#Dégradé_sans_nom_3);}.cls-2{fill:#fcfcfc;}</style><linearGradient id="Dégradé_sans_nom_3" y1="232" x2="464" y2="232" gradientUnits="userSpaceOnUse"><stop offset="0" stop-color="#fbd73b"/><stop offset="0.24" stop-color="#dcb841"/><stop offset="0.48" stop-color="#f1e054"/><stop offset="0.81" stop-color="#d7b041"/><stop offset="1" stop-color="#d7b142"/></linearGradient></defs><g id="Calque_1" data-name="Calque 1"><circle class="cls-1" cx="232" cy="232" r="232"/></g><g id="Calque_2" data-name="Calque 2"><path class="cls-2" d="M223.91,130.43l7.37-2.52c-10.21.83-11.62-6.49-13.5-13.62-1.21-4.59-3-9-4.66-14.06l12.8-2c-7.72-2.73-18.15-.87-18.11-14.2L221.4,80c-5.41-4.16-13.09,3.9-19-5.14,10.69-2.26,19.91-4.44,29.24-5.9,1.27-.19,4,3,4.52,5,2.46,10.65,5.08,21.34,6.39,32.17,2.33,19.36,3.77,38.82,6.12,58.27.95-10.8,1.37-21.68,3-32.39,2.76-18.48,5.74-37,9.64-55.23,2.07-9.69,3.08-9.76,12.58-8.18,7.17,1.19,14.22,3.19,22.19,5-1.84,4.56-3.2,7.93-4.44,11l-23.91-3.9-.89,2.22c5,2.8,9.88,6,15.13,8.29,4.88,2.11,6.37,4.76,3.84,9.52a17.55,17.55,0,0,0-1.38,3.94c-1.11,4.31-2.67,8-9,6.87,5.95,2.39,4.76,6,3.39,10.31-2.85,8.89-5.2,18-7.85,27.28l-8.53.89c9,4.16,6,10.09,4.75,16-2.43,11.28-4.3,22.68-6.63,34a10,10,0,0,1-3,5.33c-3.81,3.16-5.7,6.75-5.64,11.84.16,13.57-.2,27.15-.07,40.72,0,2.59,1.37,5.17,2.1,7.76l2-.18c.56-1.58,1.22-3.13,1.65-4.75,12.1-46.24,27.85-91.11,51.82-132.64,6.52-11.28,15.46-21.17,23.35-31.65,2.15-2.85,4.71-3.09,7.72-1,7.62,5.23,15.33,10.32,24,16.11-6.21,4.28-10.63,7.62-15.36,10.42-1.33.78-3.74.43-5.37-.18-3.46-1.29-6.73-3.09-10.08-4.68l-.83,1.23L343.25,127c-7.38,3.16-9.25,14.1-20.51,11,3.43,4.86.54,7.77-2.43,11.07-14.49,16.09-25.18,34.8-36.93,52.87-13.9,21.38-16.93,46.08-25.21,69.19l4.63,1.6c5.08-13.58,9.23-27.37,15.26-40.28,20.74-44.5,51.51-79.85,96-102.29,4.09-2.06,6.84-2.12,9.59,1.75,5.58,7.86,11.34,15.59,17.08,23.44-7.64,4.91-13.58,5.47-19.82.39a39.68,39.68,0,0,0-13.42-6.84L382.86,162c-8.51,3.77-14.7,6.71-21.08,9.16-1.21.46-3.32-.78-4.77-1.66-4.05-2.44-8-5.11-12.95-6.77l9.66,12.24c-8.34,5.25-16.82,9.5-24,15.35-11.86,9.68-22.82,20.45-34.3,30.59-1.66,1.47-4.22,1.89-6.18,3.09-1.67,1-3.8,2.16-4.5,3.78-5,11.5-10.64,22.86-14.14,34.83-3.19,10.91-8.32,20-17.52,28.07-4.19-8.59-9.28-16.88-12.4-25.86-5.48-15.78-9.68-32-14.59-48-.72-2.32-.6-6-5-5.24-.63.1-1.8-1.36-2.3-2.31-10.8-20.75-23.38-40.32-39.57-58.86l9.21-6.45c-6.75-1.29-11.76,5.3-16.4-1.07-3.14-4.3-7.31-7.85-11.38-12.11l7.93-8.84-.78-1.08-11.34,7-20.16-14.1c7.53-9.34,17.83-14.47,29-20.32,5.28,6.45,11.08,12.75,16,19.68,22,31.08,36.41,65.83,48.2,101.74,4.91,14.94,8.92,30.16,13.36,45.24a14.21,14.21,0,0,0,3.3,6c.87-1.85,2.48-3.7,2.5-5.56.15-14.77.28-29.56-.31-44.31-.11-2.71-3.54-5.28-5.42-7.92-1.31-1.82-3.34-3.48-3.77-5.49C234,178.91,229,155,223.91,130.43Z" transform="translate(-18 -18)"/><path class="cls-2" d="M204.85,245.56c-2.1,1.55-4.32,3.17-5.4,4-14.52-8.2-28.31-16-42.15-23.78a50.51,50.51,0,0,0-7.13-3.06c-5.4-2-11.95-2.69-11.37-11.61-3,6.85-7.39,5.23-12.16,3.87-6.3-1.8-12.75-3.11-19.17-4.41-3.19-.65-4.85-1.87-4.57-5.52.34-4.47.08-9,.08-13.49l-1.72-.86c-2.34,3-5.15,5.7-6.91,9-4.4,8.2-4.21,8.3-14.11,6.75-.76-9.64,3.62-17.92,7.13-26.47,1.57-3.81,3.48-4.69,7.69-4,60.86,9.86,105.17,42,132.48,97.45,1.76,3.57,2.6,7.32,7.63,9.18,3.77,1.38,6.53,6.27,9,10.09.89,1.39-.44,4.2-.84,6.94C224.29,285.09,221,260.93,204.85,245.56Z" transform="translate(-18 -18)"/><path class="cls-2" d="M237.08,273.37c5.51-.22,11.63,9.21,11.16,17.29-1-.23-2.24-.15-2.68-.72-5-6.5-11-11.91-13.47-20.62-3.91-13.7-10-26.76-15.09-40.15-1.31-3.5-3-5.14-7.07-4.2-1.57.36-4.05-.72-5.32-2-4.82-4.75-9-10.15-14-14.68-3.57-3.23-6.08-6.09-3.08-11.54-5.23,5.35-8.45,1.28-12.24-1.39-8-5.61-16.18-10.88-24.9-16.69l3.84-9.94c-.56-.2-1.05-.48-1.13-.39-6.86,7.9-14.2,6.15-22,1.44-3.52-2.13-7.54-3.44-12-5.42L130.81,147l-.86-.86c-3.63,3.17-7.26,6.32-10.88,9.5-8.25,7.26-8.25,7.26-19.5,1.46,6.56-9.12,12.87-18.26,19.69-27,.91-1.17,4.75-1.18,6.59-.33,16,7.42,30.39,17.44,43.56,29.16,33,29.34,54.26,65.85,66,108.16C236,269.18,236.53,271.29,237.08,273.37Z" transform="translate(-18 -18)"/><path class="cls-2" d="M263.18,295.85l-5.06,3.88c-3.64-3.63-3.5-7.32.34-10.53,3.45-2.88,4-9.48,10.77-8.4.61.1,1.81-2.35,2.47-3.75,25.76-55.08,69.08-87.76,128.1-100.4,10.5-2.25,10.77-2.27,14.58,7.85,2.46,6.55,4,13.44,5.78,19.35-18.82,4-36.25,7.87-53.75,11.39-1.75.36-4.14-.8-5.77-1.93-2.54-1.76-4.68-4.1-8.07-5.5,1,3.51,2,7,3.08,10.65l-29.42,13.3-4.35-3.84c1.79,6.75-3.05,8.79-7.15,11.51-4.48,3-8.71,6.3-13.35,9.7l-6.19-3.73Q279,270.84,263,296Z" transform="translate(-18 -18)"/><path class="cls-2" d="M186.26,261.93c-3,1-5.14,2.42-6.84,2-7.36-1.64-14.6-3.82-22.06-5.84-.62-3.06-1.25-6.12-2.18-10.69l-3.76,9.22c-11.24-1.38-22.33-2.4-33.25-4.35-2.63-.47-4.71-4-7.36-6.48l-1.88,6.32c-4.4,0-9,.23-13.49-.15-1.17-.1-2.69-1.93-3.18-3.28-1.08-3-1.61-6.25-3.6-9.21-.72,4-1.44,8.07-2.26,12.69l-14.81,1.93,2.47-30.36c10.71,1,21,1.46,31.15,3,36.88,5.73,70.83,18.56,99.93,42.65,2.15,1.79,4.22,3.66,6.32,5.51q13.33,11.71,26.66,23.45c3,2.67,3.73,5.45.39,8.82C221.15,291.64,206.64,272.64,186.26,261.93Z" transform="translate(-18 -18)"/><path class="cls-2" d="M126.06,286.65l-30,3.84q-.84-7.51-1.68-15.08H93.2c-.4,3.11-1.54,6.34-1,9.29,1,6.14-2,8.18-7.18,8.91-1.71.24-3.37.76-5.36,1.21l-2.87-10.21-2.27,11.95-1.12.12c-.63-7-1.42-14.08-1.71-21.14,0-1,2.23-2.65,3.69-3.05,51.77-14.39,100.59-10.77,144.35,23.78,4.13,3.26,8.85,5.77,13.22,8.75s5.56,6.78,2.79,11.64c-.95,1.65-1.25,3.67-2.09,6.27-10-25.74-32.63-34.44-54.87-44.87-.79,3.81-1.38,6.64-1.73,8.31-13.81,0-26.94.1-40.06-.14-1.44,0-3.3-1.79-4.18-3.23-1.71-2.82-2.87-6-5.66-8.89C126.76,278.25,126.42,282.4,126.06,286.65Z" transform="translate(-18 -18)"/><path class="cls-2" d="M263,296a51.85,51.85,0,0,1,5.87-4.65c1.47-.87,3.43-.88,5.13-1.43a6.56,6.56,0,0,0,2.82-1.5C308.21,253,349.16,236,394.52,227.62c10.11-1.87,20.39-2.8,31.61-4.3.71,10.3,1.33,19.34,2,28.7-10.25,3.09-9.06-8.62-15.07-11.45.35,3.55.68,6.81,1,10-6.07,0-11.62.26-17.12-.18-1.44-.11-2.94-2.24-4-3.73-1.44-2-2.5-4.35-4.9-6.32l-.68,9.66c-15.65,2.5-31,4.79-46.2,7.45C332,259,323,261.14,314,263.2a10.31,10.31,0,0,0-4.07,2.43c-10.73,9.18-21.39,18.44-32.08,27.66-5.42,4.67-10.87,9.31-16.43,14.06-2.69-2.7-2.81-5.24.07-8,.89-.85,1.18-2.31,1.74-3.49Z" transform="translate(-18 -18)"/><path class="cls-2" d="M372.8,274.43c-.38,3.42-.75,6.83-1.22,11.1-10,0-20.08.09-30.17-.14-1,0-2.06-2-2.72-3.24a53.42,53.42,0,0,0-3.09-6c-.64,8.18-4.1,12.28-12.91,9.78l-1.89-6.46c-22.05,11.28-46.21,18.95-53.47,47.47-.93-2.76-1.7-5-2.43-7.18-.81-2.45-1.74-4.88-2.3-7.39-.22-1,0-2.69.71-3.22,5-3.84,7.63-11.23,15.77-10.71,1.22.08,2.6-1.67,3.84-2.65,32.45-25.45,69.57-33.29,109.79-28.6,11.4,1.33,22.65,4,34.22,6.06-.58,7.89-1.1,14.91-1.64,22.25-11.24-.21-9.6-10.71-14.58-17.41v12.67c-10.6-1.61-20.36-3-30-4.73-1.27-.23-2.46-2.29-3.2-3.75-1.28-2.57-2.18-5.33-3.24-8Z" transform="translate(-18 -18)"/><path class="cls-2" d="M263.7,334.58c-2.11-4.47-4.32-8.9-6.27-13.44a23.33,23.33,0,0,1-1-5.07l2.64-.77c2.5,5.55,5.2,11,7.4,16.7.66,1.72.6,4.79-3,2.42Z" transform="translate(-18 -18)"/><path class="cls-2" d="M263.52,334.42V341c-3.06-8.1-10-12.36-11.32-19.62l1.78-1,9.71,14.18Z" transform="translate(-18 -18)"/><path class="cls-2" d="M235.76,340.24q5-9.63,10-19.26l2.19,1.13C245.77,329.11,239.86,334.24,235.76,340.24Z" transform="translate(-18 -18)"/><path class="cls-2" d="M235.42,333.33,242,316.39C245,319,245,319,235.42,333.33Z" transform="translate(-18 -18)"/><path class="cls-2" d="M330.64,335H331a82,82,0,0,0-164,0h39.09L220,338s37.59,3.27,60.28-1.37,57.52,3.16,57.52,3.16S334.44,337.56,330.64,335Z" transform="translate(-18 -18)"/></g><g id="vagues"><path class="cls-2" d="M415.48,335l-3.4-.22a92.83,92.83,0,0,0-9.8.16c-4.25.27-9.42.86-15.35,1.41s-12.65.94-20.05.9c-3.7-.06-7.59-.16-11.61-.42s-8.18-.63-12.36-1.23A110.26,110.26,0,0,1,330,332.79c-2.29-.61-4.76-1.2-7.29-1.72s-5.13-.89-7.74-1.19a153.87,153.87,0,0,0-15.87-.92,146.92,146.92,0,0,0-16.62.64c-5.68.55-11.37,1.58-16.7,2.43a154.1,154.1,0,0,1-16.16,1.72c-5.5.28-11,.32-16.44.22a136.62,136.62,0,0,1-15.67-1.16c-2.53-.32-5.05-.79-7.62-1.25s-5.25-1-8-1.41-5.58-.67-8.34-.82c-1.38,0-2.75-.07-4.11-.06s-2.71.05-4,.13a232.7,232.7,0,0,0-28.66,3.52c-8.75,1.5-16.77,2.84-24.18,3.72a128.4,128.4,0,0,1-19.89.9c-5.92-.14-11.05-.54-15.24-.93s-7.44-.82-9.64-1.12L84.52,335s1.1.4,3.23,1.08,5.28,1.62,9.4,2.68,9.19,2.22,15.2,3.19a118.18,118.18,0,0,0,20.75,1.67c7.64,0,16-.51,24.89-1.2s18.08-1.38,27.72-1.21c1.21,0,2.35.08,3.53.11s2.33.18,3.5.27c2.32.26,4.63.59,7,1.08s4.87,1.09,7.52,1.7,5.4,1.22,8.23,1.68a130.54,130.54,0,0,0,17.27,1.75c5.81.22,11.63.23,17.63-.07a142.86,142.86,0,0,0,17.68-2.05c5.72-1,10.87-2.09,16-2.77s10.18-1.05,15.24-1.24,10-.26,14.72,0a97.72,97.72,0,0,1,13.72,1.64,109.7,109.7,0,0,0,14.2,1.83,130.34,130.34,0,0,0,13.26,0c4.2-.17,8.22-.5,12-.89a177.09,177.09,0,0,0,20.39-3.52c5.89-1.37,10.86-2.7,15-3.61s7.32-1.42,9.52-1.73Z" transform="translate(-18 -18)"/><path class="cls-2" d="M403,355.85a3.47,3.47,0,0,1-.7.35,16.1,16.1,0,0,1-2.2.65,60.81,60.81,0,0,1-8.75,1.08,272.87,272.87,0,0,1-32.45-.47c-3.41-.23-7-.56-10.67-1s-7.56-.94-11.6-1.44-8.24-1-12.58-1.32-8.81-.61-13.39-.75c-9.16-.31-18.77-.41-28.78,0-5,.21-10.09.58-15.19,1s-10.23.88-15.42,1.19c-10.36.66-20.56.8-30.4.84s-19.29-.21-28.24-1c-4.47-.39-8.91-.89-13.29-1.18s-8.63-.38-12.72-.35c-8.18.09-15.74.55-22.62,1.06-13.78,1-24.86,2.33-32.51,3.27s-11.87,1.58-11.87,1.58l12-.49c7.69-.28,18.83-.7,32.57-.87,6.86-.07,14.38-.08,22.39.23,4,.18,8.11.46,12.33.93s8.58,1.13,13.15,1.69a274.89,274.89,0,0,0,28.79,1.83c10,.15,20.29.12,30.89-.55,5.3-.32,10.52-.81,15.6-1.29s10-.91,14.93-1.21c9.77-.6,19.28-.78,28.32-.8,4.52,0,8.92.08,13.19.22s8.4.41,12.42.71,7.94.61,11.72.82,7.43.32,10.89.33a234.92,234.92,0,0,0,32.7-1.94,59.08,59.08,0,0,0,8.71-1.88,16.45,16.45,0,0,0,2.16-.87A3.47,3.47,0,0,0,403,355.85Z" transform="translate(-18 -18)"/><path class="cls-2" d="M352.79,371.5l-8.06.47c-5.19.28-12.69.71-21.93,1-4.62.14-9.69.26-15,.11s-11-.75-17.07-1.5c-12.06-1.54-25.62-3.57-40.06-3.58-3.6,0-7.18.07-10.72.36a102,102,0,0,0-10.41,1.33c-3.35.59-6.51,1.25-9.58,1.71s-6.1.78-9.09,1c-6,.41-11.77.45-17.19.43s-10.49-.13-15.11-.26c-9.26-.25-16.77-.55-22-.75l-8.07-.33s2.82.55,7.95,1.41,12.57,2,21.82,3.16c4.62.57,9.69,1.11,15.17,1.55s11.36.78,17.64.69c3.14-.06,6.38-.22,9.68-.6s6.58-.93,9.81-1.4a126.73,126.73,0,0,1,20-1.3c13.91,0,27.17,1.55,39.5,2.46a149.91,149.91,0,0,0,17.69.41c5.56-.27,10.64-.83,15.27-1.41,9.26-1.18,16.67-2.48,21.79-3.42S352.79,371.5,352.79,371.5Z" transform="translate(-18 -18)"/><path class="cls-2" d="M239.58,387.59s-1.61-.22-4.53-.48-7.17-.5-12.41-.58c-10.49-.2-24.87.44-40.55.93s-29.94.32-40.35.26l-16.89-.13s6.25,1.79,16.57,3.62a202.77,202.77,0,0,0,40.87,3.24c16.07-.5,30.31-2.9,40.59-4.43,5.14-.79,9.3-1.43,12.2-1.82Z" transform="translate(-18 -18)"/><path class="cls-2" d="M377.41,385.5s-1.6-.19-4.52-.42-7.14-.44-12.37-.41-11.44.34-18.25.71-14.21.67-22,.61c-15.7-.13-30.05-.09-40.43.2s-16.83.64-16.83.64,6.36,1.15,16.68,2.42a360.73,360.73,0,0,0,40.56,2.87,157.1,157.1,0,0,0,22.52-1.59c6.84-1,12.9-2,18-2.8s9.26-1.34,12.15-1.7Z" transform="translate(-18 -18)"/><path class="cls-2" d="M347.87,408.19s-11.17-.87-29.24-1.75c-9-.44-19.79-.87-31.73-1.2-6-.16-12.21-.33-18.77-.37s-13.36.14-20.3.59a631,631,0,0,1-70.15,2c-9-.26-16.3-.69-21.35-1s-7.83-.59-7.83-.59,2.72.69,7.69,1.68,12.2,2.28,21.21,3.42a343.83,343.83,0,0,0,70.88,1.46q10.23-.66,19.91-.87l18.71-.43c11.94-.32,22.7-.76,31.73-1.2C336.7,409.07,347.87,408.19,347.87,408.19Z" transform="translate(-18 -18)"/><path class="cls-2" d="M313.9,424.73l-5.06.18c-3.24.11-7.94.23-13.68.09-2.87-.08-6-.23-9.36-.48s-7-.58-10.88-.79c-7.89-.48-16.46.25-25.16.85-4.37.31-8.6.55-12.69.68s-8,.06-11.82,0l-20.31-.4c-11.61-.2-18.84-.14-18.84-.14s7,1.68,18.51,3.63c5.75,1,12.6,2,20.29,2.81,3.84.38,7.93.73,12.22.79s8.66-.08,13.12-.39c8.94-.63,17.16-1.75,24.62-1.93,3.77-.12,7.43-.17,10.88-.34s6.68-.44,9.6-.8A128.28,128.28,0,0,0,309,426c1.59-.36,2.81-.71,3.65-.92Z" transform="translate(-18 -18)"/></g></svg>